<?xml version="1.0" standalone="no"?>
<!DOCTYPE svg PUBLIC "-//W3C//DTD SVG 20010904//EN"
 "http://www.w3.org/TR/2001/REC-SVG-20010904/DTD/svg10.dtd">
<svg version="1.0" xmlns="http://www.w3.org/2000/svg"
 width="376.000000pt" height="294.000000pt" viewBox="0 0 376.000000 294.000000"
 preserveAspectRatio="xMidYMid meet">

<g transform="translate(0.000000,294.000000) scale(0.100000,-0.100000)"
fill="#000000" stroke="none">
<path d="M368 2813 c90 -2 234 -2 320 0 86 1 13 3 -163 3 -176 0 -247 -2 -157
-3z"/>
<path d="M863 2813 c9 -2 25 -2 35 0 9 3 1 5 -18 5 -19 0 -27 -2 -17 -5z"/>
<path d="M948 2813 c7 -3 16 -2 19 1 4 3 -2 6 -13 5 -11 0 -14 -3 -6 -6z"/>
<path d="M1533 2813 c103 -2 271 -2 375 0 103 1 18 2 -188 2 -206 0 -291 -1
-187 -2z"/>
<path d="M168 2790 c-51 -15 -94 -49 -118 -92 l-25 -43 -10 -643 c-6 -382 -6
-642 -1 -642 5 0 7 -95 3 -227 -3 -126 -2 -435 2 -688 l7 -460 2 700 c5 1744
7 1954 19 1966 9 9 11 7 6 -9 -3 -12 -2 -34 2 -49 l7 -28 12 30 c19 52 46 83
90 105 42 20 55 20 987 20 999 -1 990 0 1041 -47 11 -10 28 -34 39 -53 l18
-35 2 40 c1 35 2 37 9 15 4 -14 8 -614 9 -1334 0 -720 3 -1311 6 -1314 3 -3 5
591 5 1320 0 1448 3 1363 -58 1421 -61 58 -38 57 -1076 56 -523 0 -963 -4
-978 -9z"/>
<path d="M170 2639 c0 -17 24 -32 34 -22 3 4 6 13 6 22 0 14 -2 14 -10 1 -9
-13 -11 -13 -20 0 -8 13 -10 13 -10 -1z"/>
<path d="M258 2644 c-3 -5 -2 -18 2 -28 3 -11 9 -15 12 -10 3 5 2 18 -2 28 -3
11 -9 15 -12 10z"/>
<path d="M1837 2643 c-11 -10 -8 -63 3 -63 6 0 10 16 10 35 0 36 -2 40 -13 28z"/>
<path d="M1891 2641 c-32 -20 21 -41 63 -25 13 5 14 9 5 20 -13 16 -47 18 -68
5z"/>
<path d="M1800 2605 c0 -14 5 -25 10 -25 6 0 10 11 10 25 0 14 -4 25 -10 25
-5 0 -10 -11 -10 -25z"/>
<path d="M2010 2610 c0 -18 7 -20 55 -20 48 0 55 2 55 20 0 18 -7 20 -55 20
-48 0 -55 -2 -55 -20z"/>
<path d="M1780 2610 c0 -5 -7 -10 -15 -10 -8 0 -15 -4 -15 -8 0 -4 9 -8 20 -8
13 0 20 7 20 18 0 10 -2 18 -5 18 -3 0 -5 -4 -5 -10z"/>
<path d="M152 2518 c-15 -15 -17 -355 -2 -378 14 -22 601 -28 619 -7 8 10 11
69 9 203 l-3 189 -305 3 c-229 2 -309 -1 -318 -10z m348 -188 c0 -47 -3 -60
-15 -60 -12 0 -15 13 -15 60 0 47 3 60 15 60 12 0 15 -13 15 -60z m-54 25 c15
-23 15 -27 0 -50 -19 -29 -51 -32 -78 -8 -22 20 -23 32 -2 61 21 30 59 29 80
-3z m122 -27 c-1 -24 -5 -28 -30 -28 -24 0 -28 4 -28 28 0 25 4 29 29 29 26 0
29 -4 29 -29z"/>
<path d="M390 2330 c0 -5 7 -10 15 -10 8 0 15 5 15 10 0 6 -7 10 -15 10 -8 0
-15 -4 -15 -10z"/>
<path d="M54 2250 c0 -140 2 -198 3 -127 2 70 2 184 0 255 -1 70 -3 12 -3
-128z"/>
<path d="M1202 2453 c-22 -9 -2 -23 34 -23 22 0 33 4 29 11 -4 6 -13 8 -21 5
-8 -3 -14 -1 -14 4 0 11 -7 11 -28 3z"/>
<path d="M1140 2441 c0 -10 41 -23 49 -16 2 3 -1 5 -8 5 -7 0 -9 5 -6 10 3 6
-3 10 -14 10 -12 0 -21 -4 -21 -9z"/>
<path d="M1030 2390 c0 -5 9 -10 19 -10 11 0 23 5 26 10 4 6 -5 10 -19 10 -14
0 -26 -4 -26 -10z"/>
<path d="M1124 2373 c-12 -15 -26 -24 -34 -21 -11 4 -8 9 10 17 l25 12 -25 -6
c-14 -2 -38 -5 -53 -5 -24 0 -26 -2 -15 -13 22 -22 59 -27 138 -16 115 16 120
17 120 39 0 26 -20 26 -27 0 -4 -17 -13 -20 -48 -18 -33 1 -45 6 -48 20 -7 25
-20 23 -43 -9z"/>
<path d="M2298 2373 c7 -3 16 -2 19 1 4 3 -2 6 -13 5 -11 0 -14 -3 -6 -6z"/>
<path d="M2448 2373 c61 -2 163 -2 225 0 61 1 11 3 -113 3 -124 0 -174 -2
-112 -3z"/>
<path d="M2863 2373 c32 -2 81 -2 110 0 29 2 3 3 -58 3 -60 0 -84 -1 -52 -3z"/>
<path d="M3503 2373 c9 -2 25 -2 35 0 9 3 1 5 -18 5 -19 0 -27 -2 -17 -5z"/>
<path d="M2290 2325 l0 -35 637 0 c625 0 637 0 680 -21 56 -27 84 -68 93 -138
l8 -56 0 70 c1 88 2 96 12 65 4 -14 10 -518 11 -1120 3 -794 5 -920 6 -457 2
413 7 637 13 637 6 0 10 5 10 11 0 5 -4 7 -10 4 -7 -4 -10 149 -10 451 0 322
-3 468 -12 496 -15 50 -74 102 -133 117 -30 7 -248 11 -674 11 l-631 0 0 -35z"/>
<path d="M1870 2340 c-12 -8 -11 -10 8 -10 12 0 22 5 22 10 0 13 -11 13 -30 0z"/>
<path d="M1041 2243 c0 -25 1 -26 9 -8 12 27 12 35 0 35 -5 0 -10 -12 -9 -27z"/>
<path d="M1081 2263 c0 -5 4 -17 9 -28 8 -18 9 -17 9 8 1 15 -3 27 -9 27 -5 0
-10 -3 -9 -7z"/>
<path d="M1710 2244 c0 -23 2 -24 15 -10 8 8 15 19 15 25 0 6 -7 11 -15 11 -9
0 -15 -10 -15 -26z"/>
<path d="M1117 2253 c-13 -13 -7 -33 11 -33 14 0 15 2 2 10 -13 9 -13 11 0 20
8 5 10 10 4 10 -6 0 -14 -3 -17 -7z"/>
<path d="M1150 2246 c0 -8 4 -17 8 -20 4 -2 8 4 8 15 0 10 -4 19 -8 19 -4 0
-8 -6 -8 -14z"/>
<path d="M1180 2250 c0 -6 5 -8 10 -5 6 3 10 2 10 -4 0 -5 -6 -12 -12 -14 -8
-3 -5 -6 5 -6 12 -1 17 5 15 16 -3 19 -28 31 -28 13z"/>
<path d="M1220 2240 c0 -11 2 -20 4 -20 2 0 6 9 9 20 3 11 1 20 -4 20 -5 0 -9
-9 -9 -20z"/>
<path d="M1253 2240 c1 -11 5 -20 9 -20 3 0 6 9 5 20 -1 11 -5 20 -9 20 -3 0
-6 -9 -5 -20z"/>
<path d="M1750 2240 c0 -11 2 -20 4 -20 2 0 6 9 9 20 3 11 1 20 -4 20 -5 0 -9
-9 -9 -20z"/>
<path d="M1790 2253 c16 -8 11 -26 -6 -19 -8 3 -12 2 -9 -4 3 -6 13 -10 21
-10 18 0 15 32 -4 36 -7 1 -8 0 -2 -3z"/>
<path d="M1820 2234 c0 -21 3 -23 19 -14 11 5 26 8 33 7 7 -2 10 -2 6 0 -16 9
-7 25 9 19 10 -4 14 -4 10 1 -5 4 -24 8 -43 10 -30 2 -34 -1 -34 -23z m30 6
c0 -5 -4 -10 -10 -10 -5 0 -10 5 -10 10 0 6 5 10 10 10 6 0 10 -4 10 -10z"/>
<path d="M1964 2247 c3 -10 6 -24 7 -30 0 -7 5 -1 10 12 5 13 7 26 4 29 -3 3
-5 -1 -5 -9 0 -12 -2 -11 -11 1 -9 12 -10 12 -5 -3z"/>
<path d="M1060 2240 c0 -5 5 -10 10 -10 6 0 10 5 10 10 0 6 -4 10 -10 10 -5 0
-10 -4 -10 -10z"/>
<path d="M3300 2175 c0 -22 4 -34 10 -30 6 3 10 17 10 30 0 13 -4 27 -10 30
-6 4 -10 -8 -10 -30z"/>
<path d="M3355 2200 c-10 -17 5 -30 35 -30 33 0 49 18 29 31 -19 12 -56 11
-64 -1z m53 -8 c8 -6 2 -9 -18 -9 -20 0 -26 3 -18 9 7 4 15 8 18 8 3 0 11 -4
18 -8z"/>
<path d="M3270 2165 c0 -14 5 -25 10 -25 6 0 10 11 10 25 0 14 -4 25 -10 25
-5 0 -10 -11 -10 -25z"/>
<path d="M3480 2169 c0 -18 5 -20 52 -17 40 2 52 7 54 21 2 14 -6 17 -52 17
-48 0 -54 -2 -54 -21z"/>
<path d="M3245 2167 c-4 -10 -5 -21 -1 -24 10 -10 18 4 13 24 -4 17 -4 17 -12
0z"/>
<path d="M3215 2150 c3 -5 8 -10 11 -10 2 0 4 5 4 10 0 6 -5 10 -11 10 -5 0
-7 -4 -4 -10z"/>
<path d="M2017 1993 c-14 -13 -6 -40 18 -63 l25 -24 23 24 22 24 -22 -18 c-22
-18 -24 -18 -43 -1 -11 10 -20 27 -20 38 0 15 5 18 25 15 13 -3 22 -1 19 3 -6
11 -38 12 -47 2z"/>
<path d="M2087 1975 c3 -8 9 -12 14 -9 12 7 11 11 -5 17 -10 4 -13 1 -9 -8z"/>
<path d="M167 1764 c-12 -13 -8 -41 9 -55 13 -10 17 -10 25 2 6 10 3 15 -11
17 -11 2 -20 10 -20 18 0 16 26 19 33 4 3 -6 4 -5 3 2 -3 15 -28 22 -39 12z"/>
<path d="M264 1730 c1 -20 7 -25 34 -27 26 -2 32 1 32 17 0 10 -6 22 -12 26
-7 4 -10 4 -6 -1 7 -8 -19 -34 -34 -35 -4 0 -9 10 -11 23 -3 19 -4 19 -3 -3z"/>
<path d="M342 1735 c0 -16 2 -22 5 -12 2 9 2 23 0 30 -3 6 -5 -1 -5 -18z"/>
<path d="M430 1726 c0 -31 6 -34 13 -6 3 11 1 23 -4 26 -5 3 -9 -6 -9 -20z"/>
<path d="M461 1737 c-9 -11 -8 -17 6 -28 9 -8 14 -9 10 -2 -4 6 -1 13 5 16 10
3 10 8 2 16 -8 9 -14 8 -23 -2z"/>
<path d="M361 1724 c0 -11 3 -14 6 -6 3 7 2 16 -1 19 -3 4 -6 -2 -5 -13z"/>
<path d="M380 1725 c0 -8 2 -15 4 -15 2 0 6 7 10 15 3 8 1 15 -4 15 -6 0 -10
-7 -10 -15z"/>
<path d="M407 1721 c-4 -17 -3 -21 5 -13 5 5 8 16 6 23 -3 8 -7 3 -11 -10z"/>
<path d="M530 1737 c0 -2 6 -10 14 -16 11 -9 16 -9 22 1 4 7 4 10 -1 6 -4 -4
-14 -3 -22 3 -7 6 -13 9 -13 6z"/>
<path d="M2592 1680 c0 -14 2 -19 5 -12 2 6 2 18 0 25 -3 6 -5 1 -5 -13z"/>
<path d="M3522 1680 c0 -14 2 -19 5 -12 2 6 2 18 0 25 -3 6 -5 1 -5 -13z"/>
<path d="M2295 1680 c4 -6 11 -8 16 -5 14 9 11 15 -7 15 -8 0 -12 -5 -9 -10z"/>
<path d="M2651 1674 c0 -11 3 -14 6 -6 3 7 2 16 -1 19 -3 4 -6 -2 -5 -13z"/>
<path d="M349 1508 c4 -28 6 -29 9 -9 2 13 0 27 -5 32 -6 6 -7 -3 -4 -23z"/>
<path d="M852 1531 c-18 -11 -11 -45 8 -47 9 0 10 1 3 3 -16 6 -17 25 -1 41
14 14 9 15 -10 3z"/>
<path d="M1655 1509 c0 -16 5 -31 11 -33 6 -2 9 7 6 25 -6 39 -17 44 -17 8z"/>
<path d="M516 1522 c-3 -6 -14 -9 -24 -7 -9 1 -11 0 -4 -2 6 -3 12 -9 12 -15
0 -5 -7 -8 -15 -4 -8 3 -15 1 -15 -4 0 -17 25 -11 43 11 10 11 16 23 14 26 -3
2 -8 0 -11 -5z"/>
<path d="M607 1512 c8 -32 19 -35 31 -7 7 15 8 25 2 25 -6 0 -10 -8 -10 -17 0
-15 -2 -14 -15 3 -13 18 -14 18 -8 -4z"/>
<path d="M1630 1521 c0 -6 4 -13 10 -16 6 -3 7 1 4 9 -7 18 -14 21 -14 7z"/>
<path d="M1732 1510 c0 -14 2 -19 5 -12 2 6 2 18 0 25 -3 6 -5 1 -5 -13z"/>
<path d="M1790 1521 c0 -5 -9 -7 -20 -4 -16 4 -20 0 -20 -22 0 -27 1 -27 18
-12 10 10 21 15 23 13 2 -2 9 2 16 9 10 10 9 14 -2 19 -8 3 -15 1 -15 -3z
m-10 -15 c0 -3 -4 -8 -10 -11 -5 -3 -10 -1 -10 4 0 6 5 11 10 11 6 0 10 -2 10
-4z"/>
<path d="M1982 1510 c0 -14 2 -19 5 -12 2 6 2 18 0 25 -3 6 -5 1 -5 -13z"/>
<path d="M2019 1528 c-5 -16 -4 -46 2 -42 4 2 7 13 6 24 -1 17 -5 26 -8 18z"/>
<path d="M2060 1511 c0 -20 2 -21 15 -11 8 7 15 18 14 24 0 6 -3 5 -6 -3 -5
-11 -7 -11 -14 0 -6 10 -9 7 -9 -10z"/>
<path d="M375 1509 c-4 -5 -3 -13 0 -19 10 -16 33 -12 44 8 8 14 11 14 12 2 1
-8 1 -19 0 -23 -3 -16 17 3 21 20 4 15 -2 18 -33 20 -22 1 -41 -3 -44 -8z m35
-9 c0 -5 -4 -10 -9 -10 -6 0 -13 5 -16 10 -3 6 1 10 9 10 9 0 16 -4 16 -10z"/>
<path d="M551 1503 c10 -11 10 -14 2 -9 -7 4 -13 2 -13 -3 0 -6 7 -11 15 -11
8 0 15 9 15 20 0 12 -7 20 -16 20 -14 0 -15 -2 -3 -17z"/>
<path d="M704 1500 c0 -11 5 -20 11 -20 6 0 11 9 11 20 0 11 -5 20 -11 20 -6
0 -11 -9 -11 -20z"/>
<path d="M801 1504 c0 -11 3 -14 6 -6 3 7 2 16 -1 19 -3 4 -6 -2 -5 -13z"/>
<path d="M901 1503 c10 -11 10 -14 2 -9 -7 4 -13 2 -13 -3 0 -6 7 -11 15 -11
8 0 15 9 15 20 0 12 -7 20 -16 20 -14 0 -15 -2 -3 -17z"/>
<path d="M930 1500 c0 -11 2 -20 4 -20 2 0 6 9 9 20 3 11 1 20 -4 20 -5 0 -9
-9 -9 -20z"/>
<path d="M963 1500 c1 -11 5 -20 9 -20 3 0 6 9 5 20 -1 11 -5 20 -9 20 -3 0
-6 -9 -5 -20z"/>
<path d="M1834 1509 c-3 -6 -2 -15 4 -21 13 -13 32 -2 32 18 0 16 -26 19 -36
3z m26 -9 c0 -5 -4 -10 -10 -10 -5 0 -10 5 -10 10 0 6 5 10 10 10 6 0 10 -4
10 -10z"/>
<path d="M1881 1503 c0 -13 2 -14 6 -4 5 11 7 11 14 0 7 -11 9 -10 9 4 0 9 -7
17 -15 17 -8 0 -15 -8 -14 -17z"/>
<path d="M1920 1506 c0 -8 5 -18 12 -22 7 -4 8 -3 4 4 -4 7 -2 12 3 12 6 0 11
5 11 10 0 6 -7 10 -15 10 -8 0 -15 -6 -15 -14z"/>
<path d="M2101 1501 c0 -11 2 -12 6 -3 4 10 8 9 17 -4 14 -18 36 -12 36 11 0
9 -11 13 -30 13 -21 -1 -30 -6 -29 -17z m49 -1 c0 -5 -4 -10 -10 -10 -5 0 -10
5 -10 10 0 6 5 10 10 10 6 0 10 -4 10 -10z"/>
<path d="M3701 1504 c0 -11 3 -14 6 -6 3 7 2 16 -1 19 -3 4 -6 -2 -5 -13z"/>
<path d="M266 1491 c-3 -5 1 -11 9 -14 9 -4 12 -1 8 9 -6 16 -10 17 -17 5z"/>
<path d="M2357 1393 c-14 -14 -7 -43 11 -42 10 0 12 3 5 6 -7 2 -13 11 -13 18
0 7 6 16 13 18 6 3 7 6 1 6 -6 1 -14 -2 -17 -6z"/>
<path d="M2407 1373 c4 -11 3 -14 -5 -9 -7 4 -12 2 -12 -3 0 -6 7 -11 15 -11
8 0 15 9 15 20 0 11 -4 20 -10 20 -5 0 -6 -7 -3 -17z"/>
<path d="M2432 1370 c0 -14 2 -19 5 -12 2 6 2 18 0 25 -3 6 -5 1 -5 -13z"/>
<path d="M2463 1370 c1 -11 5 -20 9 -20 3 0 6 9 5 20 -1 11 -5 20 -9 20 -3 0
-6 -9 -5 -20z"/>
<path d="M2295 1371 c-3 -5 -1 -12 4 -15 5 -3 11 1 15 9 6 16 -9 21 -19 6z"/>
<path d="M3403 1233 c31 -5 37 -33 7 -33 -25 0 -38 -29 -19 -40 9 -6 12 -23
10 -50 -3 -46 22 -75 74 -85 l30 -6 -1 -137 c-1 -115 -5 -145 -22 -184 -12
-27 -25 -48 -30 -48 -16 0 -9 -33 9 -37 10 -3 15 -11 12 -22 -4 -15 4 -19 49
-24 96 -12 108 -10 108 18 0 19 -5 25 -21 25 -12 0 -17 4 -14 11 4 6 13 8 21
5 11 -4 14 4 14 34 0 34 -4 41 -25 46 -16 4 -25 13 -25 25 0 10 -6 19 -14 19
-17 0 -30 62 -20 93 7 23 9 76 3 138 -4 44 37 136 63 142 14 4 18 15 18 55 0
55 -16 71 -50 50 -15 -10 -22 -10 -32 0 -18 18 -68 16 -68 -3 0 -8 -5 -15 -10
-15 -6 0 -13 7 -16 15 -4 10 -18 14 -43 14 -30 -2 -31 -3 -8 -6z m147 -33 c0
-5 -2 -10 -4 -10 -3 0 -8 5 -11 10 -3 6 -1 10 4 10 6 0 11 -4 11 -10z m42 -47
l-5 -26 -13 24 c-18 32 -17 38 4 32 14 -3 18 -11 14 -30z m-54 -6 c18 -12 15
-22 -14 -56 -21 -26 -29 -29 -45 -20 -28 15 -45 55 -31 72 12 15 68 17 90 4z"/>
<path d="M3453 1134 c-3 -8 4 -25 17 -39 25 -27 40 -22 61 18 14 26 -4 46 -25
28 -10 -8 -16 -9 -21 -1 -9 15 -25 12 -32 -6z"/>
<path d="M53 1145 c0 -22 2 -30 4 -17 2 12 2 30 0 40 -3 9 -5 -1 -4 -23z"/>
<path d="M3146 1115 c-9 -26 -7 -32 5 -12 6 10 9 21 6 23 -2 3 -7 -2 -11 -11z"/>
<path d="M3607 1093 c-12 -11 -8 -23 8 -23 8 0 15 7 15 15 0 16 -12 20 -23 8z"/>
<path d="M54 920 c0 -74 1 -105 3 -67 2 37 2 97 0 135 -2 37 -3 6 -3 -68z"/>
<path d="M3025 1020 c3 -5 8 -10 11 -10 2 0 4 5 4 10 0 6 -5 10 -11 10 -5 0
-7 -4 -4 -10z"/>
<path d="M3070 1010 c0 -15 -7 -20 -25 -20 -28 0 -31 -13 -12 -53 14 -31 43
-35 63 -9 19 25 18 88 -2 96 -23 9 -24 8 -24 -14z"/>
<path d="M2458 1013 c12 -2 32 -2 45 0 12 2 2 4 -23 4 -25 0 -35 -2 -22 -4z"/>
<path d="M2290 991 c0 -7 181 -4 205 4 6 2 -38 4 -97 4 -60 1 -108 -3 -108 -8z"/>
<path d="M2658 993 c7 -3 16 -2 19 1 4 3 -2 6 -13 5 -11 0 -14 -3 -6 -6z"/>
<path d="M333 973 c9 -2 23 -2 30 0 6 3 -1 5 -18 5 -16 0 -22 -2 -12 -5z"/>
<path d="M820 965 c-7 -8 -23 -15 -36 -15 -33 0 -67 -36 -60 -63 3 -12 6 -34
6 -49 l0 -28 105 0 105 0 0 58 c0 53 -2 59 -34 85 -39 30 -67 34 -86 12z"/>
<path d="M3140 958 c0 -16 5 -28 10 -28 13 0 13 20 0 40 -8 12 -10 9 -10 -12z"/>
<path d="M3429 936 c-2 -25 -1 -46 3 -46 5 0 9 6 9 13 1 6 3 22 4 34 1 12 -1
27 -5 33 -4 7 -9 -8 -11 -34z"/>
<path d="M3595 970 c-3 -5 1 -10 10 -10 9 0 13 5 10 10 -3 6 -8 10 -10 10 -2
0 -7 -4 -10 -10z"/>
<path d="M1734 955 c-30 -23 0 -37 68 -32 67 4 78 11 54 35 -13 13 -16 13 -11
2 4 -11 -3 -16 -22 -17 -39 -3 -75 6 -68 17 9 14 2 12 -21 -5z"/>
<path d="M1783 959 c11 -7 23 -7 35 0 14 9 11 10 -18 10 -29 0 -32 -1 -17 -10z"/>
<path d="M2308 953 c-16 -4 -18 -18 -18 -104 l0 -100 138 7 c75 3 148 8 162 9
14 1 81 4 150 6 69 1 99 4 68 6 -32 2 -58 8 -58 13 0 20 -35 50 -57 50 -13 0
-23 5 -23 10 0 6 -5 10 -10 10 -6 0 -8 -15 -4 -39 l6 -39 -41 11 c-28 8 -41
17 -41 28 0 31 -12 50 -24 41 -6 -5 -33 -12 -59 -16 -27 -3 -58 -13 -70 -21
-29 -20 -34 -19 -33 8 1 15 -5 23 -20 25 -12 2 -29 11 -38 21 -15 16 -14 19 9
31 33 18 32 30 -2 31 l-28 1 25 8 c20 6 21 8 5 8 -11 0 -28 -2 -37 -5z"/>
<path d="M2190 879 l0 -70 28 3 c26 3 27 5 29 68 1 44 -1 57 -6 40 l-8 -25 -8
28 c-4 15 -13 27 -21 27 -11 0 -14 -17 -14 -71z"/>
<path d="M2487 943 c-30 -8 -8 -23 34 -23 28 0 39 4 39 15 0 15 -33 19 -73 8z"/>
<path d="M2600 923 c0 -18 6 -23 25 -23 14 0 25 5 25 11 0 5 -5 7 -11 4 -6 -4
-17 1 -24 11 -14 18 -14 18 -15 -3z"/>
<path d="M3572 929 c2 -6 7 -10 11 -10 4 1 15 1 25 1 14 0 15 2 2 10 -20 13
-43 13 -38 -1z"/>
<path d="M1700 889 c0 -16 122 -25 168 -13 45 12 20 19 -73 19 -52 0 -95 -3
-95 -6z"/>
<path d="M2890 889 c8 -9 47 -41 87 -73 69 -55 93 -63 93 -30 0 13 -6 16 -27
13 -3 0 -10 6 -15 15 -5 9 -18 16 -28 16 -11 0 -44 17 -72 37 -29 20 -46 30
-38 22z"/>
<path d="M3580 880 c0 -5 9 -10 20 -10 11 0 20 5 20 10 0 6 -9 10 -20 10 -11
0 -20 -4 -20 -10z"/>
<path d="M1690 835 c0 -29 16 -35 90 -35 92 0 120 8 120 36 0 24 -1 24 -105
23 -103 -1 -105 -1 -105 -24z"/>
<path d="M3190 835 c0 -8 7 -15 15 -15 8 0 15 4 15 9 0 5 -7 11 -15 15 -9 3
-15 0 -15 -9z"/>
<path d="M1360 830 c0 -21 31 -71 40 -65 6 4 4 18 -5 35 -16 31 -35 48 -35 30z"/>
<path d="M3378 834 c-9 -8 15 -56 37 -74 14 -11 17 -10 22 8 3 12 12 22 19 22
8 0 14 6 14 14 0 8 6 17 13 19 6 3 0 6 -14 6 -15 1 -39 4 -55 7 -16 3 -32 2
-36 -2z"/>
<path d="M3081 804 c0 -11 3 -14 6 -6 3 7 2 16 -1 19 -3 4 -6 -2 -5 -13z"/>
<path d="M54 630 c0 -85 2 -120 3 -77 2 42 2 112 0 155 -1 42 -3 7 -3 -78z"/>
<path d="M3390 752 c0 -6 -12 -14 -26 -19 l-26 -9 23 -10 c19 -9 28 -8 42 6
16 15 16 19 2 30 -9 7 -15 8 -15 2z"/>
<path d="M2290 696 c0 -19 82 -29 117 -14 28 11 28 11 -17 19 -71 12 -100 11
-100 -5z"/>
<path d="M2554 675 c11 -8 27 -15 37 -15 9 0 22 -7 29 -16 23 -27 44 -33 156
-44 60 -5 123 -12 141 -14 22 -3 30 -1 27 7 -2 7 -27 13 -57 13 -127 3 -212
16 -232 35 -12 10 -36 22 -55 26 -29 5 -31 8 -15 14 15 6 12 8 -15 8 -33 0
-34 -1 -16 -14z"/>
<path d="M2655 670 c3 -5 12 -7 20 -3 21 7 19 13 -6 13 -11 0 -18 -4 -14 -10z"/>
<path d="M2707 656 c-16 -12 -16 -14 -1 -20 27 -10 90 -7 124 8 25 10 29 14
15 20 -29 11 -119 6 -138 -8z m86 -3 c-7 -2 -19 -2 -25 0 -7 3 -2 5 12 5 14 0
19 -2 13 -5z"/>
<path d="M3106 663 l-239 -3 29 -25 c30 -26 46 -26 24 0 -7 8 -8 15 -4 15 5 0
20 -18 34 -41 17 -28 34 -42 55 -47 l30 -6 -35 -7 c-31 -6 -30 -7 18 -8 28 0
52 2 52 7 0 4 60 8 133 9 72 2 143 5 155 8 15 4 21 2 17 -5 -3 -5 -2 -10 4
-10 17 0 24 22 10 31 -12 7 -11 9 1 9 12 1 11 4 -4 15 -13 10 -17 21 -12 39 5
21 3 26 -11 24 -10 -2 -125 -4 -257 -5z m224 -58 c0 -9 -6 -12 -15 -9 -8 4
-12 10 -9 15 8 14 24 10 24 -6z"/>
<path d="M271 604 c0 -11 3 -14 6 -6 3 7 2 16 -1 19 -3 4 -6 -2 -5 -13z"/>
<path d="M1002 604 c-7 -8 -8 -14 -3 -14 10 0 25 19 20 25 -2 1 -10 -3 -17
-11z"/>
<path d="M1747 605 c-4 -8 -3 -16 1 -19 4 -3 9 4 9 15 2 23 -3 25 -10 4z"/>
<path d="M2222 600 c0 -14 2 -19 5 -12 2 6 2 18 0 25 -3 6 -5 1 -5 -13z"/>
<path d="M2290 540 c0 -76 11 -105 23 -59 3 12 10 18 15 15 12 -7 22 26 22 72
0 32 -23 46 -33 20 -3 -7 -6 -3 -6 10 -1 12 -5 22 -11 22 -6 0 -10 -33 -10
-80z"/>
<path d="M356 597 c3 -10 9 -15 12 -12 3 3 0 11 -7 18 -10 9 -11 8 -5 -6z"/>
<path d="M722 601 c-11 -6 -10 -10 0 -19 11 -8 14 -7 14 9 0 10 0 19 -1 19 0
0 -6 -4 -13 -9z"/>
<path d="M1345 599 c-4 -6 -5 -12 -2 -15 2 -3 7 2 10 11 7 17 1 20 -8 4z"/>
<path d="M2470 583 c-8 -2 -22 -7 -30 -10 -8 -4 -18 -7 -22 -7 -3 -1 -10 -5
-15 -10 -5 -5 -2 -6 7 -2 11 6 11 4 -1 -6 -9 -7 -19 -24 -23 -38 -28 -103 -30
-106 -79 -100 -16 1 -18 -6 -15 -62 l3 -63 34 -5 c22 -3 37 -12 41 -25 9 -25
-5 -35 -47 -35 l-33 0 0 -71 c0 -44 4 -68 10 -64 6 3 10 1 10 -6 0 -17 77 -3
118 22 18 10 37 19 42 19 16 0 22 -41 8 -57 -12 -15 -11 -15 9 -5 16 9 22 9
26 -1 3 -6 8 3 12 21 8 34 31 43 42 16 6 -16 -15 -37 -29 -28 -4 3 -8 0 -8 -6
0 -6 14 -10 33 -8 18 1 38 -1 44 -5 6 -4 17 1 24 10 12 14 12 16 -1 11 -11 -4
-16 1 -18 18 -2 23 1 24 58 24 57 0 60 -1 60 -24 0 -17 5 -23 18 -22 9 2 20
-2 24 -8 5 -6 5 4 2 22 -5 25 -3 32 9 32 9 0 20 -7 24 -15 7 -12 33 -15 127
-16 90 -1 134 -6 179 -21 59 -19 147 -19 147 1 0 4 18 16 41 26 36 16 46 17
87 6 26 -7 50 -17 53 -23 9 -14 29 24 29 55 0 25 -16 37 -48 37 -9 0 -24 4
-32 10 -12 7 -9 13 14 31 31 24 78 94 83 123 2 14 -1 17 -16 13 -15 -3 -21 4
-31 36 l-12 40 -231 -6 c-128 -2 -239 -8 -247 -11 -8 -4 -28 -24 -43 -46 l-28
-40 -92 0 c-105 0 -137 6 -137 26 0 16 55 20 65 4 8 -13 78 -13 91 -1 5 5 20
11 34 14 24 4 24 4 -2 6 -49 2 -26 30 25 31 19 1 17 3 -8 14 l-30 13 35 7 c19
3 48 7 64 8 16 2 31 9 34 16 3 10 -20 12 -105 10 l-108 -3 -19 -42 c-16 -36
-24 -43 -47 -43 -29 0 -47 29 -33 51 4 8 3 9 -4 5 -7 -4 -12 -1 -12 6 0 8 -9
31 -19 52 -11 21 -18 43 -15 50 3 7 -4 21 -16 31 -11 10 -20 13 -20 7 0 -7 4
-12 9 -12 5 0 12 -7 15 -16 4 -10 -5 -6 -25 10 -17 14 -34 26 -39 26 -5 0 -14
2 -22 4 -7 3 -20 2 -28 -1z m357 -139 c-3 -3 -12 -4 -19 -1 -8 3 -5 6 6 6 11
1 17 -2 13 -5z m285 -220 c18 -20 41 -40 52 -45 17 -8 -176 -4 -382 6 -31 2
-35 7 -25 31 4 11 150 32 263 37 30 2 56 4 58 5 1 1 17 -14 34 -34z m175 20
c-3 -3 -12 -4 -19 -1 -8 3 -5 6 6 6 11 1 17 -2 13 -5z"/>
<path d="M3150 495 l0 -36 62 3 c50 2 63 7 66 20 2 12 -3 17 -20 16 -57 -4
-88 2 -88 17 0 8 -4 15 -10 15 -5 0 -10 -16 -10 -35z"/>
<path d="M3203 523 c9 -2 25 -2 35 0 9 3 1 5 -18 5 -19 0 -27 -2 -17 -5z"/>
<path d="M711 484 c0 -11 3 -14 6 -6 3 7 2 16 -1 19 -3 4 -6 -2 -5 -13z"/>
<path d="M741 484 c0 -11 3 -14 6 -6 3 7 2 16 -1 19 -3 4 -6 -2 -5 -13z"/>
<path d="M851 484 c0 -11 3 -14 6 -6 3 7 2 16 -1 19 -3 4 -6 -2 -5 -13z"/>
<path d="M3426 471 c-19 -7 -19 -8 2 -22 13 -10 24 -31 28 -57 4 -23 11 -42
16 -42 13 0 27 45 24 77 -2 15 -4 34 -5 41 -1 13 -35 15 -65 3z"/>
<path d="M276 241 c-34 -35 -36 -39 -17 -44 12 -3 26 2 36 13 10 11 24 16 37
12 14 -3 19 -1 14 6 -12 19 1 14 28 -12 20 -18 26 -33 26 -66 0 -34 3 -41 16
-36 9 3 26 9 39 12 18 4 24 14 27 45 4 42 -6 59 -33 59 -10 0 -24 6 -32 14
-11 12 -77 36 -97 36 -3 0 -23 -17 -44 -39z"/>
<path d="M2225 268 c-29 -84 -33 -104 -25 -112 6 -6 16 -3 26 10 15 18 15 18
9 -11 -17 -90 -17 -102 -1 -108 14 -6 16 7 16 113 0 76 -4 120 -10 120 -6 0
-13 -6 -15 -12z"/>
<path d="M780 257 c0 -9 7 -22 15 -31 27 -27 19 -47 -18 -42 -24 3 -34 0 -34
-10 0 -8 11 -14 26 -14 14 0 36 -3 49 -6 19 -6 22 -3 22 24 0 17 -3 32 -8 34
-4 2 -17 16 -30 32 -14 19 -22 23 -22 13z"/>
<path d="M1802 262 c-8 -5 5 -9 32 -9 25 0 43 4 40 9 -7 10 -55 10 -72 0z"/>
<path d="M1362 228 c-7 -7 -39 -11 -78 -11 -65 0 -65 0 -36 -14 17 -8 36 -28
42 -44 10 -23 19 -29 41 -29 24 0 29 4 29 24 0 14 10 32 22 40 20 14 21 18 7
31 -11 12 -18 12 -27 3z"/>
<path d="M1840 219 c0 -5 -12 -7 -27 -3 -16 4 -25 3 -21 -1 4 -4 3 -16 -3 -26
-12 -22 -39 -14 -39 12 0 12 -5 16 -15 13 -8 -4 -13 -10 -10 -14 3 -5 -4 -11
-14 -15 -25 -8 -36 -41 -21 -60 16 -19 34 -19 50 0 17 20 27 19 33 -5 7 -28
53 -27 68 1 8 15 14 18 22 10 13 -13 47 -15 47 -2 0 5 -6 12 -12 14 -10 4 -10
8 1 15 20 15 4 49 -29 61 -19 6 -30 6 -30 0z m36 -36 c-10 -10 -19 5 -10 18 6
11 8 11 12 0 2 -7 1 -15 -2 -18z m-45 -56 c-16 -16 -26 0 -10 19 9 11 15 12
17 4 2 -6 -1 -17 -7 -23z"/>
<path d="M1194 156 c-3 -14 -3 -30 1 -35 10 -17 44 -13 71 8 22 18 23 21 8 35
-8 9 -29 16 -45 16 -22 0 -30 -6 -35 -24z m29 -13 c-4 -10 -2 -14 5 -9 6 3 13
2 17 -4 3 -5 -3 -10 -14 -10 -11 0 -23 5 -26 10 -9 15 3 43 14 35 6 -3 7 -13
4 -22z"/>
<path d="M1377 161 c-2 -10 0 -26 5 -35 12 -21 54 -21 62 0 9 24 7 31 -5 12
-9 -16 -49 -26 -49 -12 0 20 22 42 37 37 11 -4 14 -3 9 5 -12 19 -53 14 -59
-7z"/>
<path d="M322 120 c0 -14 2 -19 5 -12 2 6 2 18 0 25 -3 6 -5 1 -5 -13z"/>
</g>
</svg>
